<svg width="136" height="100" viewBox="0 0 136 100" fill="none" xmlns="http://www.w3.org/2000/svg">
<g clip-path="url(#clip0_2614_23)">
<path d="M133.5 2.5H63.5V97.5H133.5V2.5Z" fill="#181B19" stroke="#DC3545" stroke-width="5"/>
<path d="M101 29H0V71H101V29Z" fill="#181B19"/>
<path d="M11.3115 59.9998V37.5998H16.5275C20.1755 37.5998 21.7435 39.2958 21.7435 42.7518V44.1278C21.7435 46.4318 21.0075 47.9038 19.4395 48.5438V48.6078C21.1995 49.1518 21.7755 50.8158 21.7755 53.3438V57.2798C21.7755 58.3678 21.8075 59.1678 22.1595 59.9998H18.5755C18.3835 59.4238 18.2555 59.0718 18.2555 57.2478V53.1518C18.2555 51.0718 17.6475 50.3998 16.0475 50.3998H14.8315V59.9998H11.3115ZM14.8315 47.1998H16.1115C17.4235 47.1998 18.2235 46.6238 18.2235 44.8318V43.1038C18.2235 41.5038 17.6795 40.7998 16.4315 40.7998H14.8315V47.1998ZM24.2178 59.9998V37.5998H33.8178V40.7998H27.7378V46.7198H32.5698V49.9198H27.7378V56.7998H33.8178V59.9998H24.2178ZM40.8028 60.3198C37.4108 60.3198 35.6188 58.2718 35.6188 54.8158V42.7838C35.6188 39.3278 37.4108 37.2798 40.8028 37.2798C44.1948 37.2798 45.9868 39.3278 45.9868 42.7838V45.1518H42.6588V42.5598C42.6588 41.0878 41.9548 40.4798 40.8988 40.4798C39.8428 40.4798 39.1388 41.0878 39.1388 42.5598V55.0718C39.1388 56.5438 39.8428 57.1198 40.8988 57.1198C41.9548 57.1198 42.6588 56.5438 42.6588 55.0718V51.6478H45.9868V54.8158C45.9868 58.2718 44.1948 60.3198 40.8028 60.3198ZM50.8448 59.9998V40.7998H47.1648V37.5998H58.0448V40.7998H54.3648V59.9998H50.8448ZM59.749 59.9998V37.5998H63.269V59.9998H59.749ZM65.9053 59.9998V37.5998H70.3213L73.7453 51.0078H73.8093V37.5998H76.9453V59.9998H73.3293L69.1053 43.6478H69.0413V59.9998H65.9053ZM84.5535 60.3198C81.0975 60.3198 79.3055 58.2718 79.3055 54.6878V42.9118C79.3055 39.3278 81.0975 37.2798 84.5535 37.2798C88.0095 37.2798 89.8015 39.3278 89.8015 42.9118V44.8318H86.4735V42.6878C86.4735 41.0878 85.7695 40.4798 84.6495 40.4798C83.5295 40.4798 82.8255 41.0878 82.8255 42.6878V54.9438C82.8255 56.5438 83.5295 57.1198 84.6495 57.1198C85.7695 57.1198 86.4735 56.5438 86.4735 54.9438V50.5598H84.7135V47.3598H89.8015V54.6878C89.8015 58.2718 88.0095 60.3198 84.5535 60.3198Z" fill="#DC3545"/>
</g>
<defs>
<clipPath id="clip0_2614_23">
<rect width="136" height="100" fill="white"/>
</clipPath>
</defs>
</svg>
